<?xml version="1.0" encoding="UTF-8"?>
<svg xmlns="http://www.w3.org/2000/svg" xmlns:xlink="http://www.w3.org/1999/xlink" width="20pt" height="22pt" viewBox="0 0 20 22" version="1.1">
<g id="surface1">
<path style=" stroke:none;fill-rule:nonzero;fill:rgb(44.705882%,53.72549%,85.490196%);fill-opacity:1;" d="M 17.65625 0.0195312 L 2.34375 0.0195312 C 1.050781 0.0195312 0 1.027344 0 2.28125 L 0 17.128906 C 0 18.378906 1.050781 19.390625 2.34375 19.390625 L 15.304688 19.390625 L 14.695312 17.359375 L 16.160156 18.664062 L 17.542969 19.894531 L 20 21.980469 L 20 2.28125 C 20 1.027344 18.949219 0.0195312 17.65625 0.0195312 Z M 13.246094 14.359375 C 13.246094 14.359375 12.835938 13.886719 12.492188 13.472656 C 13.988281 13.066406 14.558594 12.164062 14.558594 12.164062 C 14.089844 12.460938 13.644531 12.667969 13.246094 12.8125 C 12.675781 13.042969 12.125 13.195312 11.589844 13.285156 C 10.492188 13.480469 9.484375 13.425781 8.628906 13.273438 C 7.976562 13.152344 7.417969 12.976562 6.949219 12.800781 C 6.6875 12.703125 6.398438 12.582031 6.113281 12.429688 C 6.078125 12.40625 6.046875 12.394531 6.011719 12.371094 C 5.996094 12.363281 5.980469 12.351562 5.964844 12.339844 C 5.761719 12.230469 5.644531 12.152344 5.644531 12.152344 C 5.644531 12.152344 6.195312 13.03125 7.644531 13.449219 C 7.304688 13.867188 6.878906 14.359375 6.878906 14.359375 C 4.355469 14.285156 3.394531 12.691406 3.394531 12.691406 C 3.394531 9.15625 5.039062 6.289062 5.039062 6.289062 C 6.6875 5.101562 8.25 5.136719 8.25 5.136719 L 8.367188 5.265625 C 6.308594 5.839844 5.359375 6.707031 5.359375 6.707031 C 5.359375 6.707031 5.613281 6.574219 6.035156 6.386719 C 7.257812 5.871094 8.230469 5.726562 8.628906 5.695312 C 8.695312 5.683594 8.753906 5.671875 8.824219 5.671875 C 9.589844 5.578125 10.363281 5.570312 11.132812 5.652344 C 12.21875 5.773438 13.382812 6.078125 14.570312 6.707031 C 14.570312 6.707031 13.667969 5.882812 11.726562 5.3125 L 11.886719 5.136719 C 11.886719 5.136719 13.453125 5.101562 15.097656 6.289062 C 15.097656 6.289062 16.742188 9.15625 16.742188 12.691406 C 16.742188 12.691406 15.769531 14.285156 13.246094 14.359375 Z M 7.929688 9.230469 C 7.28125 9.230469 6.765625 9.78125 6.765625 10.449219 C 6.765625 11.121094 7.292969 11.671875 7.929688 11.671875 C 8.582031 11.671875 9.097656 11.121094 9.097656 10.449219 C 9.109375 9.78125 8.582031 9.230469 7.929688 9.230469 M 12.101562 9.230469 C 11.453125 9.230469 10.9375 9.78125 10.9375 10.449219 C 10.9375 11.121094 11.460938 11.671875 12.101562 11.671875 C 12.753906 11.671875 13.269531 11.121094 13.269531 10.449219 C 13.269531 9.78125 12.753906 9.230469 12.101562 9.230469 "/>
</g>
</svg>
