<?xml version="1.0" encoding="UTF-8"?>
<svg xmlns="http://www.w3.org/2000/svg" xmlns:xlink="http://www.w3.org/1999/xlink" width="20pt" height="20pt" viewBox="0 0 20 20" version="1.1">
<g id="surface1">
<path style=" stroke:none;fill-rule:nonzero;fill:rgb(18.039216%,78.431373%,40%);fill-opacity:1;" d="M 15.664062 6.511719 C 15.21875 5.742188 9.726562 2.558594 8.832031 2.558594 C 7.9375 2.558594 2.441406 5.734375 2 6.511719 C 1.554688 7.289062 1.550781 13.636719 2 14.417969 C 2.445312 15.195312 7.9375 18.367188 8.832031 18.367188 C 9.722656 18.367188 15.21875 15.191406 15.664062 14.414062 C 16.113281 13.640625 16.113281 7.28125 15.664062 6.511719 Z M 10.683594 15.347656 C 10.558594 15.347656 9.417969 14.246094 9.507812 14.152344 C 9.535156 14.128906 9.703125 14.109375 10.050781 14.097656 C 10.050781 13.289062 10.070312 11.980469 10.082031 11.433594 C 10.082031 11.371094 10.066406 11.328125 10.066406 11.253906 L 7.597656 11.253906 C 7.597656 11.472656 7.585938 12.371094 7.640625 13.503906 C 7.648438 13.640625 7.59375 13.6875 7.464844 13.6875 C 7.152344 13.683594 6.839844 13.683594 6.523438 13.683594 C 6.398438 13.683594 6.34375 13.636719 6.347656 13.496094 C 6.375 12.460938 6.4375 10.902344 6.34375 6.929688 L 6.34375 6.832031 C 6.042969 6.820312 5.835938 6.800781 5.808594 6.773438 C 5.71875 6.683594 6.875 5.578125 7 5.578125 C 7.121094 5.578125 8.269531 6.683594 8.179688 6.773438 C 8.152344 6.800781 7.9375 6.820312 7.664062 6.832031 L 7.664062 6.929688 C 7.585938 7.722656 7.601562 9.386719 7.582031 10.183594 L 10.058594 10.183594 C 10.058594 10.042969 10.070312 9.109375 10.023438 7.601562 C 10.019531 7.496094 10.050781 7.441406 10.152344 7.4375 C 10.492188 7.4375 10.835938 7.433594 11.179688 7.4375 C 11.285156 7.4375 11.320312 7.492188 11.316406 7.601562 C 11.203125 13.507812 11.296875 13.097656 11.296875 14.097656 C 11.570312 14.109375 11.816406 14.128906 11.84375 14.152344 C 11.933594 14.246094 10.804688 15.347656 10.683594 15.347656 Z M 10.683594 15.347656 "/>
</g>
</svg>
