<?xml version="1.0" encoding="UTF-8"?>
<svg xmlns="http://www.w3.org/2000/svg" xmlns:xlink="http://www.w3.org/1999/xlink" width="19pt" height="13pt" viewBox="0 0 19 13" version="1.1">
<g id="surface1">
<path style=" stroke:none;fill-rule:nonzero;fill:rgb(11.372549%,63.137255%,94.901961%);fill-opacity:1;" d="M 7.257812 13 C 12.578125 13 15.484375 8.523438 15.484375 4.640625 C 15.484375 4.515625 15.480469 4.386719 15.476562 4.261719 C 16.042969 3.847656 16.53125 3.332031 16.917969 2.742188 C 16.402344 2.976562 15.84375 3.132812 15.257812 3.203125 C 15.855469 2.839844 16.3125 2.265625 16.53125 1.578125 C 15.960938 1.921875 15.339844 2.164062 14.695312 2.292969 C 14.167969 1.722656 13.414062 1.363281 12.582031 1.363281 C 10.988281 1.363281 9.691406 2.679688 9.691406 4.300781 C 9.691406 4.53125 9.71875 4.753906 9.769531 4.972656 C 7.363281 4.847656 5.234375 3.679688 3.808594 1.902344 C 3.550781 2.351562 3.417969 2.859375 3.417969 3.378906 C 3.417969 4.398438 3.925781 5.296875 4.703125 5.824219 C 4.246094 5.808594 3.796875 5.683594 3.394531 5.457031 C 3.394531 5.46875 3.394531 5.480469 3.394531 5.492188 C 3.394531 6.914062 4.390625 8.105469 5.714844 8.371094 C 5.464844 8.441406 5.207031 8.476562 4.949219 8.476562 C 4.765625 8.476562 4.582031 8.457031 4.40625 8.421875 C 4.777344 9.589844 5.84375 10.441406 7.109375 10.464844 C 6.117188 11.25 4.871094 11.722656 3.519531 11.722656 C 3.289062 11.722656 3.058594 11.707031 2.828125 11.679688 C 4.109375 12.511719 5.625 13 7.257812 13 "/>
</g>
</svg>
